Coordinates
version=1
nRows=6
nColumns=63
inDegrees=yes

Units are S.I. units (second, meters, Newtons, ...)
If the header above contains a line with 'inDegrees', this indicates whether rotational values are in degrees (yes) or radians (no).

endheader
time	pelvis_tilt	pelvis_list	pelvis_rotation	pelvis_tx	pelvis_ty	pelvis_tz	hip_flexion_r	hip_adduction_r	hip_rotation_r	knee_angle_r	knee_angle_r_beta	ankle_angle_r	subtalar_angle_r	mtp_angle_r	hip_flexion_l	hip_adduction_l	hip_rotation_l	knee_angle_l	knee_angle_l_beta	ankle_angle_l	subtalar_angle_l	mtp_angle_l	L5_S1_Flex_Ext	L5_S1_Lat_Bending	L5_S1_axial_rotation	L4_L5_Flex_Ext	L4_L5_Lat_Bending	L4_L5_axial_rotation	L3_L4_Flex_Ext	L3_L4_Lat_Bending	L3_L4_axial_rotation	L2_L3_Flex_Ext	L2_L3_Lat_Bending	L2_L3_axial_rotation	L1_L2_Flex_Ext	L1_L2_Lat_Bending	L1_L2_axial_rotation	L1_T12_Flex_Ext	L1_T12_Lat_Bending	L1_T12_axial_rotation	Abs_r3	Abs_r2	Abs_r1	Abs_t1	Abs_t2	neck_flexion	neck_bending	neck_rotation	arm_flex_r	arm_add_r	arm_rot_r	elbow_flex_r	pro_sup_r	wrist_flex_r	wrist_dev_r	arm_flex_l	arm_add_l	arm_rot_l	elbow_flex_l	pro_sup_l	wrist_flex_l	wrist_dev_l
      0.00000000	     -2.91264590	     -3.46701037	     89.27482093	      0.26004949	      1.01001164	      0.49310680	     -4.41547877	     -4.24535096	    -10.61496875	     12.37941228	      0.21606150	     40.06262212	     11.51720196	      0.00000000	     -4.94339532	      4.04592370	     12.03640746	      7.17734136	      0.12526824	     35.30037856	     -9.16850001	      0.00000000	      0.12919086	     -0.42403516	     -0.49330065	      0.23992035	     -0.56396677	     -0.52413195	      0.21224767	     -1.03099910	     -0.52413195	      0.14765224	     -1.03099910	     -0.43163807	      0.11996664	     -0.86469251	     -0.40080678	      0.07381966	     -0.65683047	     -0.36997549	      0.92279742	     -4.79677058	     -2.74359025	      0.00000000	      0.00000000	      1.85634848	      1.71377331	    -11.44034254	    223.49429657	   -165.62315729	    196.47468905	    136.10842926	     89.22662331	     -3.47187737	      8.45485283	   -130.48597785	   -164.16074673	   -159.53888677	    136.67950343	     87.20513687	      7.59884163	     -5.74467110
      0.01666667	     -2.55001332	     -3.41224720	     88.50730634	      0.26097675	      1.01019556	      0.49332947	     -4.39368774	     -3.87841987	     -9.39484679	     12.05475844	      0.21039523	     40.81533939	     11.48741444	      0.00000000	     -5.16373111	      3.76315605	     12.69246150	      7.06940574	      0.12338441	     34.95176745	    -10.96602395	      0.00000000	      0.07628229	     -0.36720979	     -0.38076096	      0.14166383	     -0.48838902	     -0.40455852	      0.12532417	     -0.89283389	     -0.40455852	      0.08718302	     -0.89283389	     -0.33316584	      0.07083573	     -0.74881421	     -0.30936828	      0.04358770	     -0.56880797	     -0.28557072	      0.54487674	     -4.15395061	     -2.11767821	      0.00000000	      0.00000000	      1.10315716	      1.87200721	    -11.61036990	    223.72205146	   -165.55568847	    196.64667281	    136.92545485	     89.18472565	     -5.70650085	      9.57273400	   -131.10745024	   -164.02684297	   -160.12495976	    138.26746195	     87.14609756	      2.87904015	     -4.20572755
      0.03333333	     -2.42328805	     -3.42130979	     88.32456046	      0.26144242	      1.01023344	      0.49341450	     -4.42454349	     -3.64576064	     -8.25493253	     11.74071348	      0.20491411	     41.19584262	     10.55881963	      0.00000000	     -4.98784912	      3.48954759	     10.30408287	      7.55448238	      0.13185059	     35.90458564	     -7.77450371	      0.00000000	      0.05927413	     -0.34971964	     -0.35097846	      0.11007798	     -0.46512713	     -0.37291462	      0.09738146	     -0.85030834	     -0.37291462	      0.06774440	     -0.85030834	     -0.30710616	      0.05504195	     -0.71314830	     -0.28517000	      0.03386924	     -0.54171573	     -0.26323385	      0.42338916	     -3.95609856	     -1.95203693	      0.00000000	      0.00000000	      0.59682869	      2.00003447	    -11.76232732	    223.49634069	   -165.50075428	    196.27641804	    137.53264241	     89.15345718	     -6.15373752	      9.80961300	   -131.53994552	   -164.20671487	   -161.24384480	    139.01842878	     87.26738609	      2.54422643	     -3.03292201
      0.05000000	     -2.18216008	     -3.28695920	     87.43033681	      0.26304318	      1.01011130	      0.49330488	     -4.59589734	     -3.11279722	     -3.89934807	     11.21616930	      0.19575908	     40.65241043	      6.47781489	      0.00000000	     -5.04940064	      3.15798653	      7.12989206	      7.90671188	      0.13799816	     36.89946434	     -4.70399306	      0.00000000	      0.03479171	     -0.32011076	     -0.19014423	      0.06461168	     -0.42574731	     -0.20202824	      0.05715930	     -0.77831730	     -0.20202824	      0.03976345	     -0.77831730	     -0.16637620	      0.03230758	     -0.65276986	     -0.15449219	      0.01987998	     -0.49585156	     -0.14260817	      0.24851370	     -3.62115692	     -1.05752515	      0.00000000	      0.00000000	      0.53917147	      1.90992804	    -11.71057033	    223.48386851	   -165.23121011	    195.97383252	    138.60362224	     89.14036878	     -6.96466150	     12.60670252	   -131.72645288	   -163.88440455	   -160.90324783	    139.84023210	     87.59075036	     -1.94619948	     -1.09319593
      0.06666667	     -2.14084727	     -3.19196432	     87.10847917	      0.26297826	      1.00977328	      0.49275715	     -4.64042379	     -3.32198746	     -5.52644162	     11.34652609	      0.19803424	     41.27752806	      9.02782815	      0.00000000	     -5.42350861	      3.37514053	     10.36349878	      7.45618657	      0.13013501	     35.87084520	     -9.33967465	      0.00000000	      0.03890862	     -0.30652934	     -0.11846040	      0.07225721	     -0.40768403	     -0.12586417	      0.06392298	     -0.74529545	     -0.12586417	      0.04446867	     -0.74529545	     -0.10365285	      0.03613055	     -0.62507464	     -0.09624907	      0.02223239	     -0.47481396	     -0.08884530	      0.27792041	     -3.46752125	     -0.65884119	      0.00000000	      0.00000000	      0.56797197	      1.63212424	    -11.64360170	    223.26199363	   -164.84689845	    195.30270229	    139.50281602	     89.11181706	     -6.52393261	     15.00998021	   -132.05156944	   -164.14758636	   -161.77589334	    140.05228996	     87.90041786	     -0.92005602	      0.95012153
      0.08333333	     -2.12340229	     -3.13138181	     87.06514297	      0.26306778	      1.00945372	      0.49240222	     -4.77538002	     -3.25179383	     -4.84303769	     11.21790848	      0.19578944	     41.12295731	      8.20407261	      0.00000000	     -5.34033388	      3.29861804	      8.85887541	      7.81973890	      0.13648019	     36.59198562	     -7.33187663	      0.00000000	      0.05308227	     -0.30590979	     -0.10795368	      0.09857908	     -0.40686002	     -0.11470078	      0.08720885	     -0.74378906	     -0.11470078	      0.06066772	     -0.74378906	     -0.09445947	      0.04929219	     -0.62381124	     -0.08771236	      0.03033121	     -0.47385426	     -0.08096526	      0.37916131	     -3.46051272	     -0.60040598	      0.00000000	      0.00000000	      0.73434428	      1.48590086	    -11.46550037	    222.91600386	   -164.53283790	    194.69126728	    140.11815133	     89.09612081	     -5.85430981	     16.64626017	   -132.26813126	   -164.20592783	   -162.46841946	    139.98864693	     88.13273417	      0.25582851	      2.50797159
